/* XPM */
static char *character1[] = {
/* columns rows colors chars-per-pixel */
"60 60 29 1 ",
"  c #A0A0A0",
". c #9F9F9F",
"X c #3E3E3E",
"o c #7B5343",
"O c #737C4B",
"+ c black",
"@ c #1C2A32",
"# c #141413",
"$ c #5D3C32",
"% c #9CA968",
"& c #1A2931",
"* c #314752",
"= c #141418",
"- c #BFBFC0",
"; c #FFDEB7",
": c #9DA868",
"> c #777777",
", c #727B48",
"< c #5C3A31",
"1 c #F58106",
"2 c #FFAE93",
"3 c #FFCB1E",
"4 c #FFCE82",
"5 c #9DAA69",
"6 c #FFCC1B",
"7 c #9EA969",
"8 c #C0BFBE",
"9 c #767674",
"0 c #F38005",
/* pixels */
"            .        .       .             .                ",
"                                                 .          ",
"       .        .  .          .     .  .                    ",
"  .               .     ##=#####     .                      ",
"     +++        .     ##O%%%%%o$##     .            +++     ",
"    +   +  .        ##O:%%--%%ooo$##               +   +    ",
"   +  +  +          #O%%%--:%%%%%%O#            . +  +  +   ",
"   + +++ +    .    #O%%%%%%%%5%:7%:%#    .        + +++ +   ",
"   +  +  +         #%%:%%%%%%%%%%%,O#             +  +  +   ",
"    +   +         #O%%%%%%%%%%%%4;;O$#.        .   +   +.   ",
"   . +++          #O%@*%%%@*%%%54;;O,#              +++     ",
"                  #OO#O%%%#O%%OO4;;;$#                      ",
"                 #$ooO%%%%oooOOO$$$$$#            .         ",
"                 #%%%7@@@@@$$O<$$4;$$#                      ",
".                #$$-%%###%oO$$OO4;;%#..                    ",
"          .  .   #@@###**&###$%%%%%:O$#  .                  ",
"                  ###1#@@@#1###%:-%Oo$#                     ",
"                  ###10###111###%%,O$$#                     ",
"                   ##=22222##O##5%Ooo# .  .                 ",
"                    $:#;;;#%%O$$##@o$#                      ",
"                  . #O%#=#%OOO$$@#$##                       ",
"                    #Oo@@@o$######=#                        ",
"              .      #o@#&o=######$<##                      ",
"                      #@#@$######$$$$$##                    ",
"              .       #@@@####*#$@@$##@@#                   ",
"                       #$$###*#$@@@#@@@O%#                  ",
"                .      #######@&@@$#@O:%%#                  ",
"               =      #@&$$$*$$$&&##@OO$$#                  ",
"              #@####################=OO333#                 ",
"              #X@@XXX X >>>> >9 >>>XX#O$$<=                 ",
"               #######XXXXXXXXXXXXXXX#OOOO#                 ",
"                  #--X#X#XXXX#X#=##X#O%%%%#                 ",
"              .    #XX#XX######---X##OOO%6$#                ",
"                    =##X#&&&&@#X--8-O%OOO%$#                ",
"                     #XX#&@@@@@#XX8-O%OO$$$#                ",
"                .   ##XX#$@@@@&@###OO:%OO=#                 ",
"                  . #XX#$$<$**$$$*$#OO%##                   ",
"                .  .#XX#$$$$$**$**$#####                    ",
"                    #XX=#@@@@@@@@@@@#@### .                 ",
"            .       ### #&&@@&&@@@@$#=##o#                  ",
"                    .    #@@@@@@$$$#oo#oo#.                 ",
"                         #$$**$$$*$#o<#$$#                  ",
"                         #$$$**$*$@#$$#$<#                  ",
"                         =@$$$@$$###$$#$$#                  ",
"                        #@#######@@#$$###                   ",
"                        #$$$OOOOOO$$####                    ",
"                        #$$OOOO,O%:%%$$#                    ",
"                      . #OOOOO,OOOO%%%%:#                   ",
"                       #OOOOO$$$$$$OOOOO#       .           ",
"                       #%%5%O$=####$OOO$#.       .          ",
"     +++               #6%OO$#     #%%%%#.          +++     ",
"    +   +               #%$$#       =33$# .        +   +    ",
"   +  +  +              #%$#        #$$$#         +  + .+   ",
"   + +++ +           .  #$$#.        #$$# .       + +++ +  .",
"   +  +  +             #o$#          #$o#         +  +  +   ",
"    +.  +              ####          ####          +   +    ",
"     +++                                            +++     ",
"                                                    .       ",
"                                                            ",
"                                                       .    "
};
