/* XPM */
static char *character[] = {
/* columns rows colors chars-per-pixel */
"60 60 105 2 ",
"   c black",
".  c #010101",
"X  c #20201E",
"o  c #21201E",
"O  c #21211F",
"+  c #22211F",
"@  c #20221F",
"#  c #211F20",
"$  c #1F2120",
"%  c #202020",
"&  c gray13",
"*  c #222021",
"=  c #202221",
"-  c #222220",
";  c #202022",
":  c #202123",
">  c #212123",
",  c #222023",
"<  c #222222",
"1  c #243137",
"2  c #263137",
"3  c #273236",
"4  c #283337",
"5  c #263039",
"6  c #253238",
"7  c #273238",
"8  c #27313A",
"9  c #25323A",
"0  c #283138",
"q  c #283339",
"w  c #5C3F37",
"e  c #5D4136",
"r  c #5D4038",
"t  c #5C4138",
"y  c #5E4038",
"u  c #5E4139",
"i  c #5F4139",
"p  c #5D403A",
"a  c #374953",
"s  c #374B54",
"d  c #384B52",
"f  c #384A54",
"g  c #394B55",
"h  c #424240",
"j  c #414342",
"k  c gray26",
"l  c #434343",
"z  c #424244",
"x  c #775647",
"c  c #785446",
"v  c #795547",
"b  c #7A5447",
"n  c #7B5548",
"m  c #7A5449",
"M  c #7A5648",
"N  c #6F7B4D",
"B  c #70794A",
"V  c #717A4B",
"C  c #70794C",
"Z  c #72794D",
"A  c #717A4D",
"S  c #727B4C",
"D  c #717A4F",
"F  c #727B4E",
"G  c #747472",
"H  c gray46",
"J  c #767475",
"K  c #F37E15",
"L  c #F47F16",
"P  c #F58017",
"I  c #FFC926",
"U  c #FFCA26",
"Y  c #FFC928",
"T  c #FFCA29",
"R  c #99A567",
"E  c #9AA666",
"W  c #9BA767",
"Q  c #9BA568",
"!  c #9AA569",
"~  c #98A668",
"^  c #9AA668",
"/  c #9BA769",
"(  c #9CA669",
")  c #9D9D9D",
"_  c #9E9E9C",
"`  c #9F9E9C",
"'  c #9F9D9E",
"]  c #9D9F9E",
"[  c gray62",
"{  c #9F9F9F",
"}  c #A09E9F",
"|  c #9EA09F",
" . c #9F9DA0",
".. c #9E9EA0",
"X. c #9F9FA1",
"o. c #BDBDBB",
"O. c gray74",
"+. c #BEBCBD",
"@. c #BDBDBF",
"#. c gray",
"$. c #FFAB91",
"%. c #FFCC80",
"&. c #FFCBBB",
"*. c #FFCCBB",
"=. c #FFE0B2",
/* pixels */
"[ [ [ [ [ [ [ [ [ [ [ [ [ [ [ [ ) [ [ [ [ [ [ [ [ [ [ { [ ] _ [ [ [ [ [ [ [ _ [ [ [ [ [ [ [ [ ) [ [ [ [ [ [ [ [ [ [ [ [ ",
"[ [ [ [ [ [ [ [ [ [ ) [ [ [ [ [ [ [ [ { { [ [ [ { [ [ [ [ [ [ [ [ [ { [ [ [ [ [ [ [ [ { { [ [ [ [ [ [ { [ [ [ [ [ [ [ [ ",
"[ [ [ [ [ [ [ [ [ [ [ [ [ [ [ [ [ [ [ [ ) [ [ ) [ [ [ [ [ _ { [ [ [ [ [ [ [ [ [ ) [ [ ) [ [ [ [ [ [ [ [ ) [ [ [ [ [ [ [ ",
"[ [ [ [ [ [ [ [ { [ [ [ [ [ [ [ [ { [ [ [ [ ) [ [ [ [ [ & & & & & > & & [ [ [ [ [ ) [ [ [ [ { [ [ [ [ [ [ [ [ [ [ ) [ [ ",
"[ [ [ [ {     . [ [ [ [ [ [ [ { [ { [ [ ) [ [ [ [ ' & & r b ^ ^ ^ ^ ^ A & & [ [ [ [ [ ) [ [ { [ [ { [ [       [ { [ [ [ ",
"[ [ [ [   { [ [   [ [ [ [ [ [ [ [ [ [ [ [ [ [ [ ; O u v v b ^ ^ O.@.^ ^ ! A = & [ [ [ [ [ [ [ [ ) [ [   [ { [   [ [ [ [ ",
"[ [ [   [ [   [ {   [ ) [ { [ [ [ [ [ [ [ [ [ [ & A E ^ ^ ^ ^ ^ Q O.O.^ ~ ~ A & [ [ [ [ [ [ [ [ [ [   [ [   [ {   [ [ [ ",
"[ [ [ . [       [   [ [ { [ [ [ [ [ ) [ [ [ [ & ^ Q ^ ( ! ^ / ^ ^ ^ ~ ^ ^ ^ ^ A & [ [ [ [ ) [ [ [ [   [       [   [ [ [ ",
"[ [ [   [ [   [ [   [ [ [ [ [ [ [ [ [ [ { [ [ < A B ^ ^ ^ ^ ^ ^ ^ ^ ^ ^ ^ Q ^ ^ & [ [ [ [ [ [ [ [ [   [ [   [ [   [ [ [ ",
"[ [ [ )   [ [ [   { [ [ ) [ [ [ [ [ [ [ [ _ & r D =.=.%.~ ^ ^ ^ ^ ^ ^ ^ ^ ^ E ^ A & [ [ [ { [ [ [ [ [   [ [ [   [ [ [ [ ",
"[ [ [ [ [       [ [ [ [ [ [ [ [ [ [ [ [ [ [ & B A =.=.%./ ^ ~ ^ f 7 ^ ^ ^ f 7 ^ A O [ [ [ [ [ [ [ [ [ [       [ ) [ [ [ ",
"[ [ { [ [ [ [ [ [ [ [ [ [ [ [ [ ] [  .' [ ] < r =.=.=.%.A A ^ ^ A & R ^ ^ A & A A < [ [ [ [ [ [ [ [ [ [ [ [ [ [ [ [ [ [ ",
"[ [ [ [ [ { [ [ [ ) [ [ [ [ [ [ [ [ [ [ ' [ & r r t r r D A A v n v ^ ^ ^ E N v m r & [ [ ] { [ [ [ [ [ [ [ [ [ [ { [ [ ",
"[ [ [ [ [ [ [ [ [ [ [ [ [ [ [ [ [ [ ] [ [ [ & r r =.%.r r w A r r 7 7 7 7 0 ( ^ ^ E & [ [ [ [ [ [ [ [ { [ [ [ { [ [ [ [ ",
"[ [ [ [ { [ [ [ [ [ [ [ [ [ [ [ [ [ [ [ _ _ & E =.=.%.D A r r D v E & < O ^ ^ O.y i & [ [ [ [ [ [ [ [ [ [ [ [ [ [ [ [ ) ",
"[ [ [ [ [ [ [ { [ [ [ [ [ [ [ { [ ' _ [ [ & r A ! ^ ^ ^ ^ ^ r & & & 6 s a & & & 7 7 & ] [ { ) [ [ ) [ [ [ [ [ [ [ [ [ [ ",
"[ [ [ [ [ [ [ [ [ [ [ [ [ [ [ [ ..[ ' [ [ & e b A ^ #.! ^ & & < L & 7 7 7 & L & & % [ { [ [ [ { [ [ [ [ [ [ [ [ [ [ [ [ ",
"[ [ [ [ [ [ [ [ [ [ [ [ [ [ [ [ [ [ [ [ [ & r r A B ~ ^ & = & L L P & & & K P & & & [ [ [ [ [ [ [ [ [ [ [ [ [ [ [ [ [ [ ",
"[ [ [ [ [ [ [ [ [ [ [ [ [ [ [ [ [ _ [ [ ) [ ; x b A ^ / & & A & & $.$.$.$.$.> ; & [ [ [ [ [ { [ [ [ [ [ [ [ [ [ [ [ [ [ ",
"[ [ [ [ [ [ [ [ [ [ [ [ [ [ [ [ [ [ [ ..[ [ & r v 7 & & r e A ^ ^ & &.*.*.* ! r [ [ [ [ [ [ [ [ [ [ [ [ [ [ [ [ [ [ [ [ ",
"[ [ [ [ [ [ [ [ [ [ [ [ [ [ [ [ [ [ ] [ [ [ [ & & r & 7 t r A A A ^ & > & ^ A & [ ) [ [ [ [ [ [ [ [ [ [ [ [ [ [ [ [ [ [ ",
"[ [ [ [ [ [ [ [ [ [ [ [ [ [ [ [ [ [ [ ..[ [ [ [ & > % & & - o & e v 7 7 7 v A & [ [ [ [ [ { [ [ [ [ [ [ [ [ [ [ [ [ [ [ ",
"[ [ [ [ [ [ [ [ [ [ [ [ [ [ [ [ [ [ [ [ [ ] & & w r & & & & & & > v 1 & 7 v & } [ [ [ [ [ ) [ [ [ [ [ [ [ [ [ [ [ [ [ [ ",
"[ [ [ [ [ [ [ [ [ [ [ [ [ [ [ [ [ { [ [ & & r r r r t & & & & & * y 7 & 8 & [ [ [ [ [ [ [ [ [ [ [ [ [ [ [ [ [ [ [ [ [ [ ",
"[ [ [ [ [ [ [ [ [ [ [ [ [ [ [ [ [ [ { & 7 3 = & r 7 7 r & f & & = & 7 7 7 & [ [ [ [ { [ [ _ [ [ [ [ [ [ [ [ [ [ [ [ [ [ ",
"[ [ [ [ [ [ [ [ [ [ [ [ [ [ [ [ [ { & ^ A 7 7 7 & 7 7 7 r & f & & = e r % [ [ [ [ { [ [ [ [ [ [ [ [ [ [ [ [ [ [ [ [ [ [ ",
"[ [ [ [ [ [ [ [ [ [ [ [ [ [ [ [ [ [ & ^ ^ ! A q & r 7 7 6 7 & & & O < + & [ ' [ [ [ [ ) [ ..[ [ [ [ [ [ [ [ [ [ [ [ [ [ ",
"[ [ [ [ [ [ [ [ [ [ [ [ [ [ [ [ [ [ & r r A A 7 & * 2 6 r y r a r r r 6 7 & [ [ [ [ [ [ > { [ [ [ [ [ [ [ [ [ [ [ [ [ [ ",
"[ [ [ [ [ [ [ [ [ [ [ [ [ [ [ [ [ & Y T Y F A > & & & & O & & % & & = & * & & & < & & & 7 & ` [ [ [ [ [ [ [ [ [ [ [ [ [ ",
"[ [ [ [ [ [ [ [ [ [ [ [ [ [ [ [ ] , w r r A & k k H H J | G H ` H H H H [ k { k z k 7 7 k O [ [ [ [ [ [ [ [ [ [ [ [ [ [ ",
"[ [ [ [ [ [ [ [ [ [ [ [ [ [ [ [ [ & A A F A % k j z k k k k j k k l k k k k & & & & & # & [ [ ' [ [ [ [ [ [ [ [ [ [ [ [ ",
"[ [ [ [ [ [ [ [ [ [ [ [ [ [ [ [ [ & ^ ^ ^ ^ A & k % & > & k & k k k k & k O k O.#.& [ [ ' ' [ [ [ [ [ [ [ [ [ [ [ [ [ [ ",
"[ [ [ [ [ [ [ [ [ [ [ [ [ [ [ [ & y I ~ N C A & < k O.O.O.& & & = & & z k = k k & [ [ [ [ ) [ [ [ [ [ [ [ [ [ [ [ [ [ [ ",
"[ [ [ [ [ [ [ [ [ [ [ [ [ [ [ [ & r ^ A N A ^ A O.o.O.O.k * 3 2 6 2 2 = k & & > [ [ [ [ [ [ [ [ [ [ [ [ [ [ [ [ [ [ [ [ ",
"[ [ [ [ [ [ [ [ [ [ [ [ [ [ [ [ & y r r S A R A O.+.k l % 7 7 7 5 7 6 = k j < [ [ [ [ [ [ [ [ [ [ [ [ [ [ [ [ [ [ [ [ [ ",
"[ [ [ [ [ [ [ [ [ [ [ [ [ [ [ [ { & > A A ^ Q A A & & = 7 6 8 7 7 7 e & k k & & [ [ [ ) [ [ { [ [ [ [ [ [ [ [ [ [ [ [ [ ",
"[ [ [ [ [ [ [ [ [ [ [ [ [ [ [ [ [ [ { % & ^ A A & r f r r r f f r w r r & k k & [ ) [ [ [ [ { [ [ [ [ [ [ [ [ [ [ [ [ [ ",
"[ [ [ [ [ [ [ [ [ [ [ [ [ [ [ [ [ [ [ ' & & & & & r s d r f f r r r r r & k h & ) [ [ ) [ [ [ [ [ [ [ [ [ [ [ [ [ [ [ [ ",
"[ [ [ [ [ [ [ [ [ [ [ [ [ [ [ [ [ _ [ & & & 7 O 7 4 7 9 7 7 7 7 8 0 7 & : k k & [ [ [ { { [ [ [ [ [ [ [ [ [ [ [ [ [ [ [ ",
"[ [ [ [ [ [ [ [ [ [ [ [ [ [ [ [ [ [ & c O & > = r 3 8 7 7 6 2 7 7 6 6 & [ % & & [ [ [ [ [ [ [ ) [ [ [ [ [ [ [ [ [ [ [ [ ",
"[ [ [ [ [ [ [ [ [ [ [ [ [ [ [ [ ] _ $ M c & v v & e r r 7 7 7 7 7 7 & [ [ { [ ) [ [ [ [ [ [ [ [ [ [ [ [ [ [ [ [ [ [ [ [ ",
"[ [ [ [ [ [ [ [ [ [ [ [ [ [ [ [ [ [ & r r & w v & r f r r r f f r r & [ [ [ [ [ [ [ [ [ [ [ [ [ [ [ [ [ [ [ [ [ [ [ [ [ ",
"[ [ [ [ [ [ [ [ [ [ [ [ [ [ [ [ [ [ & w r & t r < 8 r f r a g r u r O ..[ { [ [ [ [ [ [ [ [ [ [ [ [ [ [ [ [ [ [ [ [ [ [ ",
"[ [ [ [ [ [ [ [ [ [ [ [ [ [ [ [ [ X.& e r & r r & & < r r 7 r r r 7 > ..[ ' [ [ [ [ [ [ [ [ [ [ [ [ [ [ [ [ [ [ [ [ [ [ ",
"[ [ [ [ [ [ [ [ [ [ [ [ [ [ [ [ [ [ [ & & & e r & 7 7 & & & & & & & 7 @ [ [ ..[ [ [ [ [ [ [ [ [ [ [ [ [ [ [ [ [ [ [ [ [ ",
"[ [ [ [ [ [ [ [ [ [ [ [ [ [ [ [ [ [ [ [ & & & & r r N A A A Z A r t r & ' ] [ [ [ [ [ [ [ [ [ [ [ [ [ [ [ [ [ [ [ [ [ [ ",
"[ [ [ [ [ [ [ [ [ [ [ [ [ [ [ [ [ [ ] [ & r e ^ ^ Q ^ A V A A A F p r & [ [ [ [ [ [ [ [ [ [ [ [ [ [ [ [ [ [ [ [ [ [ [ [ ",
"[ [ [ [ [ [ [ [ [ [ [ [ [ [ [ [ [ [ [ & ! ^ ^ ^ ^ A A A A V A A A N A & [ ) [ [ [ [ [ [ [ [ [ [ [ [ [ [ [ [ [ [ [ [ [ [ ",
"[ [ [ [ [ [ [ [ [ [ [ ) [ [ [ [ [ [ [ & N A A A Z r r r r r r A A A Z A & [ ' ] [ [ [ [ [ [ [ [ [ [ [ [ [ [ [ [ [ [ [ [ ",
"[ [ { [ { [ [ [ [ [ ) [ [ [ [ [ ] [ _ & r A A A y & & % & > r F ^ / ^ E & [ [ [ [ [ [ [ [ [ [ [ [ [ [ { [ [ [ [ [ [ [ [ ",
"[ [ [ [ [     . [ [ [ [ [ [ [ [ [ .._ & ^ ^ ^ ^ & ] [ [ [ [ # r A C W U & [ [ [ [ [ [ [ [ [ [ [ [ { { [       [ [ [ [ [ ",
"[ [ [ [   [ [ [   [ [ [ [ [ [ [ .._ [ & r Y Y : [ [ [ ..[ [ ' & r y ^ & [ [ [ [ [ [ [ [ [ [ [ [ [ [ [   [ [ [   [ [ [ [ ",
"[ [ [   ) [   [ [   [ [ [ [ [ [ { [ [ & r t r & [ [ [ [ [ [ [ [ = y ^ % [ [ { [ [ [ [ [ [ [ [ [ [ [   [ [   [ [   [ [ [ ",
") [ [   [       [   [ [ [ [ [ [ [ ) [ & r r & [ ' [ [ [ [ ] [ _ % e r % [ [ _ [ [ [ [ [ [ [ [ [ [ [   [       [ . [ [ [ ",
"[ [ [   [ [   [ [   [ [ [ [ [ [ [ [ [ & M r &  .[ [ [ ] [ { [ [ [ & r b & [ [ [ [ [ [ [ [ [ [ [ [ [   [ [   { [   { [ [ ",
"[ [ [ [   [ [ [   [ [ [ { [ [ [ [ ' [ & % * X ] [ [ [ [ [ [ { [ { & & & & [ [ [ [ [ [ [ [ [ [ [ [ [ [   [ [ )   [ [ [ [ ",
"[ [ [ { [       [ [ [ [ [ [ [ [ [ [ [ [ [ [ [ [ [ [ [ [ [ [ [ [ [ [ [ [ [ [ [ [ [ [ [ [ [ [ [ [ [ [ [ [       [ [ [ [ [ ",
"[ [ [ [ [ [ [ ) [ [ [ [ [ [ [ [ [ [ [ [ [ [ [ [ [ [ [ [ [ [ [ [ [ [ [ [ [ [ [ [ [ [ [ [ [ [ [ [ [ [ [ [ [ [ { [ [ [ [ [ ",
"[ [ [ [ [ [ [ [ [ [ [ [ [ [ [ [ [ [ [ [ [ [ [ [ [ [ [ [ [ [ [ [ [ [ [ [ [ [ [ [ [ [ [ [ [ [ [ [ [ [ [ [ [ [ [ [ [ [ [ [ ",
"[ [ [ [ ) [ [ [ [ [ [ [ [ [ [ [ [ [ [ [ [ [ [ [ [ [ [ [ [ [ [ [ [ [ [ [ [ [ [ [ [ [ [ [ [ [ [ [ [ [ [ [ [ [ [ [ [ [ [ [ "
};
