/* XPM */
static char *_ef3fcd5fc33483ce958017dc88dbfd1XyOsWPB2QRutK665[] = {
/* columns rows colors chars-per-pixel */
"60 60 24 1 ",
"  c gray62",
". c #454341",
"X c #4D4F5E",
"o c #6A482E",
"O c #504645",
"+ c #2C2C2C",
"@ c #59402C",
"# c black",
"$ c #50504E",
"% c #2C2A2D",
"& c #422E2D",
"* c #786A67",
"= c #000002",
"- c #000100",
"; c #988334",
": c #593F2B",
"> c #010000",
", c #E6B516",
"< c #447621",
"1 c #978332",
"2 c #C4F43B",
"3 c #427620",
"4 c #44761F",
"5 c #454F2E",
/* pixels */
"                                                            ",
"                                                            ",
"                                   ########                 ",
"                                ###$$$$$$$$###              ",
"     ###                       #$$$$$$$$$$$$@:#     -##     ",
"    #   #                     #$$$$$$$$$$$$$$$@#   #   #    ",
"   #  #  #                    #$$$$$$$$$$$$$$$$#  #  #  #   ",
"   # ### #                    #$$$$$$$$$$$$$$$$#  # ### -   ",
"   #  #  #                    =$$$$$$$$$$$$$$$$@# #  #  #   ",
"    #   #                     #$$$$$$$$$$$$$$$$:#  #   #    ",
"     ###                      #$$$$$$$$$$$$$$#$@#   ###     ",
"                              #$$$$$$@@:$$$$$#$@#           ",
"                              #$$$$$$$$@@$$##$$@-           ",
"                              ##########-#$@@:$$#           ",
"                              #<%%+%%%<<%####+@@#           ",
"                              #2<3%<<%24%#+#+##+#           ",
"                            ####2<%23>##=#+#+#+>            ",
"                           #+X+##=%##...+#+#+#+#            ",
"                     ###   #+XX#X##....###+-#+#             ",
"       ###          #oo@=########X+=###+X+#++######         ",
"       #X#       #######XXXXXXX++++X++X+++#####$$$@##  ##   ",
"       #++######=XXXXXXXX&&&&X++++++++++++#@++@#@@OOO-#:@=  ",
"    -#=#++XXXXXXXX+++XXXX#,;;=+++++##++++#O**++=@:OO$O#$$$= ",
" ###XXXXX++X+++++++++++XX-&&&#++###++>##-OOO##--=@@$$$#$$$# ",
" -XX++%+++XXXX++++++++X+X#,;1#-#@@##++##O*O#$OO$#@@$$$-@$$# ",
" #++>#>##+X+####%#.##++##X#&&&##:oo####OO##$OOOO$#@$$$@#$$# ",
"  #=  #++++#=  #%#.# ##>XX-,1;##ooo#$OO##O$OOOOOO#:OOOO#$$# ",
"      #XX++#   #%#.#   #++#&&&-#oooO*OOO$*OO**OO$#:OOOO###  ",
"       ####    #%=.#    #+=,1;# @o@$OO$OOOOO*O$###@OOOO#    ",
"               #%#.#     #>&&&#  ###OO$*OO*$O##%%#+@@OO#    ",
"              #%%>.##     #,;;#   #####*$O###%%%+#%%%::>    ",
"              #%%#..#     #&&&#    #@@.###:.@%%%%#OO%%+#    ",
"              #%# #.#     #,;;#    -@@@..@@.@%%%%#+OOOO#    ",
"             #%%# #.#     #&&&=   -#.%...%...:%%+#%OOO@#    ",
"             #%#  #..=    =,;;-  #...%***%***+%%+#+%OO@#    ",
"             #%#   #.#     #&&&# #@@:%@@@+@@@%%%%#O%$$#     ",
"            =%%#   #.#     #,;;# #@@@%@@@%@@@%@@@#+%OO#     ",
"            #%#    #..#    #&&&# -...%.@.%.@.%@%%#%%%%>     ",
"            #%#     #.#    #,;;# #...%...%...%%####o%%-     ",
"           #%%#     #.#    #&&&# #ooo%ooo%ooo%%#@@-o##      ",
"           #%#      #..-   -,;1#  #=#%###%=####=oo%>        ",
"           #%#       #.#   #&&&#   #%%++%%%##%#:oo%#        ",
"          >%%#       #.#   #,1;#    ##>>###%%%#:@@#%-       ",
"          #%#        #..#   #&&&#   #%%%%%%%%%%####%#       ",
"          >%-         #.#   #,;1#  #OOOOOOOO%%%%%%#%#       ",
"         -%%#         #.#   #&&&# ###OOOO**OO###O%##        ",
"         #%#          #..#  #,1;##OOO#OOOO**#OOO#O#         ",
"         #%>           #.-  #&&&#-O*O=**OOOO#@*O#+#         ",
"        #%%#           #.#  #,;;=#**O#O+OO%%#o**O##         ",
"        #%>            #.O# #&&&#-ooo#O+%####oooo#%#        ",
"     >###+#             #.# #,1;##oo@#O##   #@oo@#%#-##     ",
"    #   #>#             #..##=## #@@#>#      #@@:#@-   #    ",
"   #  #  #              #..#     #--@#       =####%# #  #   ",
"   - ### #               -.=      #@%#          #@@#### #   ",
"   #  #  #               #.#     #o@@=          #@o# #  #   ",
"    #   #                 #      #####          ####   #    ",
"     ###                                            ###     ",
"                                                            ",
"                                                            ",
"                                                            "
};
