/* XPM */
static char *enemy[] = {
/* columns rows colors chars-per-pixel */
"60 60 143 2 ",
"   c black",
".  c #010000",
"X  c #000100",
"o  c #010101",
"O  c #020001",
"+  c #000201",
"@  c #000002",
"#  c #010002",
"$  c #2E2923",
"%  c #2D2A23",
"&  c #2F2B22",
"*  c #2D2824",
"=  c #2D2A25",
"-  c gray17",
";  c #2C2A2B",
":  c #2C2C2A",
">  c #2D2C2A",
",  c #2B2B2D",
"<  c #2B2A2F",
"1  c #2D2B2C",
"2  c #2B2D2C",
"3  c #2C2C2C",
"4  c #2D2D2D",
"5  c #2C2C2E",
"6  c #302921",
"7  c #302923",
"8  c #2B2A30",
"9  c #2C2B30",
"0  c #2D2B30",
"q  c #2D2A31",
"w  c #2C2B31",
"e  c #2B2C30",
"r  c #2D2C31",
"t  c #422F2B",
"y  c #422E2D",
"u  c #432E2D",
"i  c #432F2E",
"p  c #442F2E",
"a  c #583F29",
"s  c #593E2B",
"d  c #583F2B",
"f  c #5A3F2A",
"g  c #5A3F2C",
"h  c #593F2E",
"j  c #432F30",
"k  c #42771F",
"l  c #44761F",
"z  c #57412A",
"x  c #57412C",
"c  c #59402A",
"v  c #59402C",
"b  c #5B402D",
"n  c #5A412D",
"m  c #69472C",
"M  c #6B472D",
"N  c #69472E",
"B  c #6A482D",
"V  c #6A482F",
"C  c #6A4731",
"Z  c #6B4930",
"A  c #427621",
"S  c #457521",
"D  c #447621",
"F  c #3F4342",
"G  c #3F4344",
"H  c #414340",
"J  c #404241",
"K  c #414342",
"L  c #414244",
"P  c #484340",
"I  c #4B4341",
"U  c #494343",
"Y  c #494440",
"T  c #494441",
"R  c #4A4542",
"E  c #4C4442",
"W  c #4F4544",
"Q  c #4F4745",
"!  c #4F4546",
"~  c #4F4F4D",
"^  c #514545",
"/  c #504644",
"(  c #504645",
")  c #514745",
"_  c #514746",
"`  c #4F504B",
"'  c #4F514E",
"]  c #50514C",
"[  c #50504E",
"{  c #51504E",
"}  c #51514F",
"|  c #50524F",
" . c #4D4F5C",
".. c #4C4F5E",
"X. c #4D4F5E",
"o. c #4F4E5E",
"O. c #4F5150",
"+. c #4D505F",
"@. c #4E505F",
"#. c #505050",
"$. c #515151",
"%. c #525051",
"&. c #505251",
"*. c #515153",
"=. c #525254",
"-. c #4D4E60",
";. c #4C4F60",
":. c #776966",
">. c #766B67",
",. c #786B65",
"<. c #786A67",
"1. c #796A67",
"2. c #796B68",
"3. c #786A69",
"4. c #978233",
"5. c #968334",
"6. c #988332",
"7. c #988334",
"8. c #988236",
"9. c #E3B517",
"0. c #E5B515",
"q. c #E6B415",
"w. c #E5B517",
"e. c #E6B417",
"r. c #E6B618",
"t. c #C3F33B",
"y. c #C4F43C",
"u. c #9D9D9B",
"i. c #9D9D9D",
"p. c #9D9F9C",
"a. c #9C9E9D",
"s. c #9E9E9C",
"d. c #9F9E9C",
"f. c #9F9F9D",
"g. c #9D9D9F",
"h. c #9F9D9E",
"j. c #9D9F9E",
"k. c gray62",
"l. c #9F9F9F",
"z. c #A09E9F",
"x. c #9D9EA0",
"c. c #9E9EA0",
"v. c #9F9FA1",
/* pixels */
"k.k.k.k.k.k.k.k.k.x.k.k.k.c.k.k.l.k.k.k.k.k.l.k.s.k.i.k.k.k.k.k.k.k.k.k.k.k.k.k.k.k.k.k.k.k.k.k.k.k.k.k.k.k.k.k.k.k.k.k.",
"k.k.k.k.k.k.k.k.i.i.k.k.k.h.k.k.k.k.k.k.k.k.k.k.l.k.k.k.k.l.k.k.k.k.k.k.k.k.k.k.k.k.k.k.k.k.k.k.k.k.k.l.k.k.k.k.k.k.k.k.",
"k.k.k.k.k.k.k.k.k.k.k.k.k.i.k.k.l.                k.k.k.l.k.k.l.k.k.k.k.k.k.k.k.k.k.k.k.k.k.k.k.k.k.k.k.i.k.k.k.k.k.k.k.",
"k.k.k.k.k.k.k.k.k.s.k.z.g.k.      [ [ [ [ [ [ [ ~       k.k.k.k.k.k.k.k.k.k.k.k.k.k.k.k.k.k.k.k.k.k.k.k.k.k.k.k.k.i.k.k.",
"k.k.k.k.l.    o k.k.k.k.k.  f c [ [ [ [ [ [ [ ~ [ [ [ [   k.k.k.k.k.k.k.k.k.k.k.k.k.k.k.k.k.k.k.k.l.k.k.      k.l.k.k.k.",
"k.k.k.k.  l.k.k.  j.k.k.  v [ [ [ [ [ [ [ [ } [ [ [ [ [ [   k.k.k.k.k.k.k.k.k.k.k.k.k.k.k.k.k.k.i.k.k.  k.l.k.  k.k.k.k.",
"k.k.k.  k.k.  k.k.  k.k.  ] [ [ [ [ [ [ [ [ [ [ [ [ [ [ [   k.k.k.k.k.k.k.k.k.k.k.k.k.k.k.k.k.k.k.k.  k.k.  k.l.  k.k.k.",
"k.k.k.o k.      s.  i.k.  [ [ ' [ [ [ [ [ [ [ [ [ [ [ [ [   k.k.k.k.k.k.k.k.k.k.k.k.k.k.k.k.k.k.k.k.  k.      k.  k.k.k.",
"k.k.k.  k.k.  k.k.  k.  c [ [ { [ [ [ O.[ [ O.[ [ [ } [ ' # k.k.k.k.k.k.k.k.k.k.k.k.k.k.k.k.k.k.k.k.  k.k.  k.k.  k.k.k.",
"k.k.k.i.  k.k.k.  k.k.  g [ ] [ [ ` [ [ ] [ [ [ [ [ [ [ [   k.k.k.k.k.k.k.k.k.k.k.k.k.k.k.k.k.k.k.k.k.  k.k.k.  k.k.k.k.",
"k.k.k.k.k.      l.s.k.  v [   [ [ #.[ [ | [ #.[ [ ~ [ [ [   k.k.k.k.k.k.k.k.k.k.k.k.k.k.k.k.k.k.k.k.k.k.      k.i.k.k.k.",
"k.k.l.k.k.k.k.k.k.k.k.  v [   [ [ ~ [ { d v v [ #.~ [ [ [   k.k.k.k.k.k.k.k.k.k.k.k.k.k.k.k.k.k.k.k.k.k.k.k.k.k.k.k.k.k.",
"k.k.k.k.k.l.k.k.s.k.k.X b [ [     ' [ v v } [ [ [ [ [ [ [   k.c.k.k.k.k.k.k.k.k.k.k.k.k.k.k.k.k.k.k.k.k.k.k.k.k.k.l.k.k.",
"k.k.k.k.k.k.k.k.c.k.k.  ~ [ g n v [   X                     k.k.k.k.k.k.k.k.k.k.k.k.k.k.k.k.k.k.k.k.k.l.k.k.k.l.k.k.k.k.",
"k.k.k.k.l.k.k.k.k.k.k.  v v 3         9 D S 9 8 9 e 9 w D   k.k.k.k.k.k.k.k.k.k.k.k.k.k.k.k.k.k.k.k.k.k.k.k.k.k.k.k.k.i.",
"k.k.k.k.k.k.k.l.k.k.k.  4     4   4   w l t.0 D D 9 A D t.  k.k.k.k.k.k.k.k.k.k.k.k.k.k.k.k.k.k.k.i.k.k.k.k.k.k.k.k.k.k.",
"k.h.k.k.k.k.k.k.k.j.s.k.. 3   3   3   @     . k t.w D y.        k.k.c.k.k.k.k.h.k.k.k.k.c.k.k.i.k.k.k.k.k.k.k.k.l.k.k.k.",
"j.k.k.k.j.k.k.k.k.k.k.k.  3   3   3   4 J J K     9 @     3 X.3   k.k.k.v.k.k.k.k.k.k.k.k.k.k.k.k.k.k.k.k.k.k.k.l.k.k.k.",
"k.h.s.l.k.k.k.h.c.k.k.k.k.  3   X 3       K K K K     @.  X.X.3   k.h.k.      i.k.k.k.k.k.i.k.i.h.s.k.l.k.k.h.k.k.k.k.k.",
"k.i.k.k.k.k.k.k.k.            3 :   3 X.3       @ 3 +.                @ v V m   k.k.k.k.k.k.k.k.h.l.      k.k.k.k.k.k.l.",
"k.k.i.    k.p.    v &.$.$.          3 3 : X.3 1 X.3 3 - 3 X.X.X.X.@.X.X.              k.k.k.k.k.k.l.  X.  k.i.k.k.i.k.k.",
"k.k.@ v a   X ^ ( W v v   x 3 3 v   1 3 3 3 3 3 1 3 3 2 3 3 X.t y u y X.X.X.X.X...X.o.@             3 3   k.k.j.k.k.k.k.",
"k.@ *.$.$.  W %.( ( d v @ 3 3 ,.<.W   1 3 3 1     3 4 1 3 2 @ 7.7.0.  X.X. .X.3 3 3 o.X.X.X.X.X.X.X.3 3   @   + i.k.k.k.",
"k.  $.$.$.  $.$.$.v v @ X X     ( ( / X     . 4 3       3 3   y y y X X.X.3 3 3 3 3 3 3 4 3 3 3 X.3 3 X.X.X.-.X.      k.",
"k.  $.*.v X $.$.=.v c   $.( ( $.  ( <./     3 3     n v   o   6.7.0.  o.3 X.5 3 3 1 1 3 : 3 X.;.-.X.3 3 3 ; 5 2 ..-.X k.",
"i.  $.$.  v } $.$.x   $.( ( ( ( $.    / (         V V h     y p y   @.    3 3     T   $         3 -.3     .   . 3 3   k.",
"k.  $.}   / ( ( ( g   ( ( ( ( ( ( $.(     ) ( $.  C V V     7.6.r.X X.X.O     k.  T   7   k.l.@   3 3 > 3   k.k.@   k.k.",
"k.k.      / ( ( ( h   $.( ( <.:.Q W <.$.( ( / <.( N Z V   X y y y   3 :   k.k.k.  P   $   k.k.k.  3 3 X...  k.k.k.c.l.i.",
"k.k.k.k.  ( ( ( ( v       $.( >.( ( ( ( ( $.( ^ $.v V v k.  7.4.w.@ 3   k.k.k.k.  T @ 7   k.k.k.k.        k.k.k.k.k.k.k.",
"k.k.k.j.  ( ( v v r   9 9     ( $.2.W ( ,.$.( (       l.k.  y y y .   k.k.l.s.h.  T   $   k.k.h.k.k.k.k.k.k.k.k.k.s.k.k.",
"k.k.k.k.. s g 9 9 w   5 9 w 9       ( $.1.          k.k.k.  7.7.w.  d.j.k.k.k.    I   $ 7   u.i.k.s.k.k.k.k.k.h.i.k.k.k.",
"k.k.k.k.  r 9 9 ( (   9 9 9 9 n K g       K c v   k.k.k.k.  y i y   l.s.k.k.j.  T T   $ $   l.k.k.k.k.k.k.k.k.i.k.k.k.k.",
"s.k.k.k.  ( ( ( ( 5   9 9 9 9 c L v v K K v x c o k.k.k.x.  7.7.9.  k.k.k.k.k.  U   k.  $   k.k.k.k.k.k.k.k.k.i.k.k.k.k.",
"j.k.k.k.  v ( ( Q 9   r w 9 f K K K 9 K K H 9 K   o k.k.k.@ y y y   k.k.l.k.k.  T   k.  $ $   k.k.k.k.i.k.k.k.k.k.k.k.k.",
"k.k.k.k.  v Q ( 9 r   r 9 9 e <.<.<.9 <.2.<.9 K H G   k.k.o 7.7.0.@ j.k.k.h.@ T T   k.j.  $   k.k.k.k.k.k.i.k.k.k.k.k.k.",
"k.k.k.k.k.  &.$.9 Q   9 9 9 9 v v v 5 v v v 9 d v v   k.  y y y   a.i.k.k.k.  T   k.k.k.  $   k.k.l.k.k.k.k.k.k.k.k.k.k.",
"l.k.k.k.k.  W ( 9 r   v v v 9 c c v < v v v 9 v v v   l.  7.7.w.  h.k.h.k.k.  T   k.k.j.  $ $ @ k.k.k.k.k.k.k.k.k.k.k.k.",
"k.k.k.j.l.. 9 9 9 9   9 9 v 9 K v F 9 K v F 9 K K K X k.  y y y   l.c.k.k.  T Y   c.k.d.h.  $   i.k.k.k.i.k.k.k.k.k.k.k.",
"s.k.k.k.k.o 9 9 V         , 9 K K K 9 L K K 9 K H K   j.  7.7.w.  i.k.k.k.  I   k.k.k.k.k.  $   k.k.k.k.l.k.k.k.k.k.k.k.",
"k.k.k.k.k.h.    V X v v   w 9 V V V 9 B B V 9 V V V   k.  y y y   k.k.k.k.  T   k.k.k.k.k.  % $   k.k.k.k.k.k.i.k.k.k.k.",
"k.k.k.i.i.k.k.k.. q V V @         @ 9       9   @   k.k.  5.7.w.X k.k.k.X T T   l.k.k.k.s.k.  7   k.c.k.k.h.k.k.k.k.k.k.",
"k.k.k.k.k.k.k.k.  9 V V g   9     9 9 9 5 r 9 w   k.k.k.  y y y   k.c.k.  T   l.s.k.k.k.k.k.  6   s.k.k.k.i.k.k.k.k.k.k.",
"l.k.k.l.k.k.k.o 9   v v f   < 9 9       . .     k.k.k.k.  7.4.q.  s.k.k.  T   k.k.k.k.j.k.k.  = $ . k.k.k.k.k.k.k.k.k.k.",
"k.k.k.k.k.k.k.  9         9 9 9 9 9 9 9 9 9 9   k.k.s.  y y y   k.k.k.  T T   k.k.k.k.k.k.k.l.  $   k.k.k.k.c.s.k.k.k.k.",
"k.k.i.k.k.k.k.  9   9 9 9 9 9 9 / ( ( ( ! ( ( (   l.k.  5.7.w.  k.k.k.  T   k.k.k.k.k.k.k.k.k.X $ . l.l.k.l.l.k.k.k.k.k.",
"l.k.k.k.k.l.k.k.    9 (       ( ( 2.<.( ( ( ^       k.  y y y   k.k.k.  T   p.k.k.k.k.k.k.k.k.  $ $ X k.s.k.k.k.k.k.k.k.",
"k.k.k.k.k.k.k.k.k.  ^   ( ( (   ,.<.( ( ^ (   ( ( _     7.6.w.  k.k.  T T   k.k.k.k.k.k.k.k.k.f.  $   k.k.k.k.k.k.k.k.k.",
"k.i.k.l.l.k.l.k.c.  5   Q <.v   ( ( ( ( <.<.@ ( <.( o   y y y   k.k.X R   k.k.k.k.k.k.k.k.k.l.k.. 7   k.k.k.k.k.k.k.k.k.",
"k.k.k.k.k.k.k.k.k.    ( 3.<.V   9 9 ( ( e W   ( <.<.  @ 7.8.q.  k.k.  T   k.k.k.k.k.k.k.k.k.k.k.  $ *   k.k.c.k.k.k.k.k.",
"k.k.l.k.l.k.k.k.  0   M V V V         9 e (   B V V X   y y j   l.  E T   k.k.k.k.k.k.k.k.k.k.k.k.. 7   j.k.k.k.k.k.k.k.",
"k.k.k.k.k.    o   9   v V C v   j.k.k.    (   v V B     7.6.e.  k.  T   k.k.k.k.k.k.k.k.k.k.k.k.v.  &       . k.k.k.k.k.",
"k.k.k.k.  k.k.k.o v   g v v   k.k.k.k.j.k.  .   v z   j.    @     T T   k.k.k.k.k.k.k.k.k.k.k.k.l.  .   k.k.h.  k.k.k.k.",
"k.k.k.  i.k.  k.  9         @ k.s.k.k.h.a.i.  v o X   k.k.l.k.k.  T T   k.k.k.k.k.k.k.k.k.k.k.k.k.k.  k.k.  k.k.  k.k.k.",
"i.k.k.  k.        v v   i.k.l.l.l.k.i.h.k.k.  9 v   k.k.k.k.k.h.@ T X k.k.k.k.k.k.k.k.k.k.k.k.k.s.l.  k.      k.o k.k.k.",
"k.k.k.  k.k.  k.  V v   k.k.k.k.s.h.k.k.k.k.@ v v V   k.k.k.k.k.  T   k.k.k.k.k.k.k.k.k.k.k.k.k.k.k.  k.k.  k.i.  l.k.k.",
"k.k.k.k.  k.k.k.        k.k.k.s.k.k.k.k.k.k.          k.l.k.k.k.k.  k.i.k.s.k.k.k.k.k.k.k.k.k.k.k.l.k.  k.k.k.  k.k.k.k.",
"k.k.k.l.k.      k.k.k.k.k.k.k.k.k.k.k.k.k.k.k.k.k.k.k.k.k.k.k.k.k.k.k.k.k.k.k.k.k.k.k.k.k.k.k.k.k.k.k.k.      k.k.k.k.k.",
"k.k.k.k.k.k.k.i.k.k.k.k.k.k.k.k.k.k.k.k.k.k.k.k.k.k.k.k.k.k.k.k.k.k.k.k.k.k.k.k.k.k.k.k.k.k.k.k.k.k.k.k.k.k.l.k.k.k.k.k.",
"k.k.k.k.k.k.k.k.k.k.k.k.k.k.k.k.k.k.k.k.k.k.k.k.k.k.k.k.k.k.k.k.k.k.k.k.k.k.k.k.k.k.k.k.k.k.k.k.k.k.k.k.k.k.k.k.k.k.k.k.",
"k.k.k.k.i.k.k.k.k.k.k.k.k.k.k.k.k.k.k.k.k.k.k.k.k.k.k.k.k.k.k.k.k.k.k.k.k.k.k.k.k.k.k.k.k.k.k.k.k.k.k.k.k.k.k.k.k.k.k.k."
};
