/* XPM */
static char *exit[] = {
/* columns rows colors chars-per-pixel */
"60 60 33 1 ",
"  c black",
". c #010101",
"X c #020202",
"o c gray1",
"O c #040404",
"+ c gray2",
"@ c #060606",
"# c #070707",
"$ c gray13",
"% c #3A4A1F",
"& c DarkOliveGreen",
"* c gray38",
"= c #8BC34A",
"- c #939393",
"; c #959595",
": c gray59",
"> c #979797",
", c #989898",
"< c gray60",
"1 c #9A9A9A",
"2 c #9B9B9B",
"3 c gray61",
"4 c #9D9D9D",
"5 c gray62",
"6 c #9F9F9F",
"7 c #A0A0A0",
"8 c gray63",
"9 c #A2A2A2",
"0 c gray64",
"q c #A4A4A4",
"w c #A5A5A5",
"e c gray65",
"r c #A7A7A7",
/* pixels */
"3034q3:07164560<55555555555555555555555555555555575246565464",
"6272,00254604,4555555555555555555555555555555555531954957644",
"6<8658<2555<540655555555555555555555555555555555569168264375",
"2025618w39676413555555555555555555555555555555554q1778<9672<",
"84349   7<373829555555555555555555555555555555555194   54396",
"420<X63q 86474e,55555555555555555555555555555555632o995.69,0",
"772O<5.13 7<71375555555555555555555555555555555573.72 66 391",
"620 5+  8 5677455555555555555555555555555555555548 1o.o2.720",
"882X16o48 6744955555555555555555555555555555555546.28 75.<85",
",w24O425X75186:855555555555555555555555555555555574.38<X17<0",
"8:r55 + ;e948383555555555555555555555555555555559,44.XX4q194",
"931637;875<9<5825555555555555555555555555555555554q4>476>981",
"38848<q564838<57555555555555555555555555555555552516w0,656,6",
"7103491444382864555555555555555555555555555555558568>,024788",
"6445664092622e15555555555555555555555555555555556348662852<3",
"377<863455465257555                                        5",
"55555555555555555555555555555555555555 555555555555555555555",
"55555555555555555555555555555555555555 555555555555555555555",
"5555 55555555555555555555555555555555 & 55555555555555555555",
"555   5555555555555555555555555555555 & 55555555555555555555",
"55 & = 5555555555555555555555555555  &&&  555555555555555555",
"5       55555555555555555555555555 ======= 55555555555555555",
"55 % = 55555555555555555555555555 &&&&&&&&& 5555555555555555",
"55 % = 5555555555555555555555555 &&&&&&&&&&& 555555555555555",
"55 %&= 5555555555555555555555555 %%%%%%%%%%% 555555555555555",
"55 %&= 555555555555555555555                      5555555555",
"55 %&= 555555555555555555   ======== &&= $$$$$$$$*  55555555",
"5 %&&&=  5555555555555   ===&&&&&&&& &&= $$*$$$$$$** 5555555",
"5   &&&==   5555555   ===&&&&&&&&&&& &&= $$*$$$$$$$$* 555555",
"5 %%    &===       ===&&&&&&&&&&&&&& &&= $$*$$$$$$$$$* 55555",
"55  %%%%    =======&&&         &&&&& &&= $$$*$$$$$$$$$* 5555",
"5555    %%%%    &&&&& ========= &&& &&&&= $$$*$$$$$$$$$* 555",
"55555555    %%%%      %%%%%%%%%    &&&&&&=$$$$$$$$$$$$$* 555",
"555555555555    %%%&&&         &&&&&&&&&&&=               55",
"5555555555555555   %%%%&&&&&&&&&&&&&&&&&&&&=============== 5",
"5555555555555555555    %%%%&&&&&&&&&&&&&&&&&&&&&       &&& 5",
"55555555555555555555555    %%%%&&&&         &&&& ====== &% 5",
"555555555555555555555555555    %%% ========= &&&       && 55",
"5555555555555555555555555555555    &&&&&&&&& %%%%%%%%%%  555",
"5555555555555555555555555555555555 %%%%%%%%%           55555",
"55555555555555555555555555555555555         5 5 555555555555",
"5555555555555555555555555 5555555555 5 555555 5 555555 55555",
"55555555555555555555555555                            555555",
"555555555555555555555555 5555555555555 55555555 5555555 5555",
"5555555555555555555555555                              55555",
"555555555555555555555555555555555555555555555555555555555555",
"555555555555555555555555555555555555555555555555555555555555",
"555555555555555555555555555555555555555555555555555555555555",
"5634583841557202555555555555555555555555555555554485392538<5",
"6473166>90657146555555555555555555555555555555555334613w8806",
"<q350. #,54<8q44555555555555555555555555555555558365.# 1<6:6",
"7425 -73O199>28355555555555555555555555555555555563 446o6580",
"534@2w.36 44q2665555555555555555555555555555555529 52 54o145",
"728.1  .2#183651555555555555555555555555555555559<.9 O+1 843",
"10<.54+19 q<55685555555555555555555555555555555542 81.27 481",
"7555o156.368443655555555555555555555555555555555776 937 6536",
"92733o  55555555555555555555555555555555555555552916o  45555",
",75405365555555555555555555555555555555555555555855135565555",
"q357:e375555555555555555555555555555555555555555105081945555",
"51784<525555555555555555555555555555555555555555641536355555"
};
