/* XPM */
static char *wall[] = {
/* columns rows colors chars-per-pixel */
"60 60 2 1 ",
"  c black",
". c gray62",
/* pixels */
"............................................................",
"............................................................",
"............................................................",
"............................................................",
".....   ............................................   .....",
".... ... .......................................... ... ....",
"... .. .. ........................................ .. .. ...",
"... .   . ........................................ .   . ...",
"... .. .. ........................................ .. .. ...",
".... ... .......................................... ... ....",
".....   ............................................   .....",
"............................................................",
".............                                   ............",
"............ ................................... ...........",
".............                                   ............",
"............................................................",
"............................................................",
".............                                   ............",
"............ ................................... ...........",
".............                                   ............",
"............................................................",
"............................................................",
".............                                   ............",
"............ ................................... ...........",
".............                                   ............",
"............................................................",
"............................................................",
".............                                   ............",
"............ ................................... ...........",
".............                                   ............",
"............................................................",
"............................................................",
".............                                   ............",
"............ ................................... ...........",
".............                                   ............",
"............................................................",
"............................................................",
".............                                   ............",
"............ ................................... ...........",
".............                                   ............",
"............................................................",
"............................................................",
".............                                   ............",
"............ ................................... ...........",
".............                                   ............",
"............................................................",
"............................................................",
".............                                   ............",
"............ ................................... ...........",
".............                                   ............",
".....   ............................................   .....",
".... ... .......................................... ... ....",
"... .. .. ........................................ .. .. ...",
"... .   . ........................................ .   . ...",
"... .. .. ........................................ .. .. ...",
".... ... .......................................... ... ....",
".....   ............................................   .....",
"............................................................",
"............................................................",
"............................................................"
};
